# xmcd
#
# Track frame offsets: 
#        150
#        17622
#        32132
#        49802
#        66007
#        79695
#        98447
#        114780
#        129820
#        143720
#
# Disc length: 2096 seconds
#
# Revision: 0
# Processed by: cddbd v1.5.2PL0 Copyright (c) Steve Scherf et al.
# Submitted via: ExactAudioCopy v0.99pb5
#
DISCID=6e082e0a
DTITLE=Alen Nizetic - Happy End
DYEAR=1998
DGENRE=
TTITLE0=Happy End
TTITLE1=Tebi Ne Znam Reci Ne
TTITLE2=Noc Ja Pocela
TTITLE3=Samo Se Ti Ljubi
TTITLE4=Bez Ljubavi
TTITLE5=Zivim
TTITLE6=Andjeli Sviraju Blues
TTITLE7=S Tobom Mogu Sve
TTITLE8=Ti
TTITLE9=Jos Te Volim Duso Moja
EXTD=
EXTT0=
EXTT1=
EXTT2=
EXTT3=
EXTT4=
EXTT5=
EXTT6=
EXTT7=
EXTT8=
EXTT9=
PLAYORDER=
